# xmcd CD database file
#
# Track frame offsets:
#	150
#	33950
#	66800
#	97300
#	128862
#	157275
#
# Disc length: 2380 seconds
#
# Revision: 0
# Processed by: cddbd v1.5.2PL0 Copyright (c) Steve Scherf et al.
# Submitted via: CDex 1.51
#
DISCID=54094a06
DTITLE=Sonny Clark - My Conception
DYEAR=1959
DGENRE=Jazz
TTITLE0=Junka
TTITLE1=Blues Blue
TTITLE2=Minor Meeting
TTITLE3=Royal Flush
TTITLE4=Some Clark Bars
TTITLE5=My Conception
EXTD=YEAR: 1959
EXTT0=
EXTT1=
EXTT2=
EXTT3=
EXTT4=
EXTT5=
PLAYORDER=
